<svg xmlns="http://www.w3.org/2000/svg" xmlns:xlink="http://www.w3.org/1999/xlink" x="0px" y="0px" viewBox="0 0 200 67" style="enable-background:new 0 0 200 67;" xml:space="preserve"><g>	<g>					<path style="fill:#ED1C24;" d="M24.8,47.4h10.7h3.7h2.4h0.1h1.6l3.9-7.1l7.7-13.6c0.1-0.1,0.1-0.2,0.2-0.3l0.6-1.1l-5.9-9.5      l-7-11.3c-0.5-0.8-1.3-1.3-2.3-1.3L17.5,3l0,0h-1.6l-6,10.7l0.1-0.1l-4,7L3.5,25l4.6,7.4l3.8,6.2l1.5,2.4      c1.4-0.1,4.2-0.3,5.6-0.4l0,0l2-4.7l4.6-9.5l1-2.1l-3.7-0.8l-13.1-3l0.3-1.3l19.6-0.7l0,0h0.9l5.2-9.3c-5.2,9.3-0.3,0.4,0,0      V9.1c0.8-1.4,2.3-2.8,3.5-3C39.8,6,40.4,6,40.8,6.2C40.9,6.3,41,6.3,41,6.4l0.5,0.9v0.1c0.3,1.2-0.1,2.9-1,4.5V12      c-5.8,9.2,0,0-5.8,9.2l0,0l1.5,2.8L44,39.5l-1,0.9l0,0l-8.6-10.1L31.8,27l-1.9,3.1l-4.5,7.3l0,0l-3.2,4.8 M23.3,26L20,32.7l0,0      l-2.4,5.6l-2.8,0.2L6.6,25.1V25L8,22.5c0.1,0,0.1,0.1,0.2,0.1L23.3,26z M33.9,7.9c0,0-3.4,5.4-5.1,8.5L11.1,17l6.5-11.4      l0.1-0.1l18,0.1C35.1,6.3,34.4,7.1,33.9,7.9z M41.5,44.8L41.5,44.8l-1.7,0.1l0,0H26l-1.2-2.5l3.3-4.8l0,0l0,0l4-6.6l9.4,11.2      l0.8,1l0.1,0.1L41.5,44.8z M52.5,25.5l-6.9,12.1l-8-16c5-8.4,4.7-7.9,5-8.4c0.5-0.8,0.8-1.6,1.1-2.4l8.8,14.5L52.5,25.5z"></path>				</g>	<path style="fill:#0E161D;" d="M11.6,64l-0.8-1.8H6.6L5.8,64H4.1l3.8-8.7h1.7l3.8,8.7H11.6z M7.2,60.7h3.1l-1.5-3.6L7.2,60.7z"></path>	<path style="fill:#0E161D;" d="M14.5,55.3h1.7V64h-1.7C14.5,64,14.5,55.3,14.5,55.3z"></path>	<path style="fill:#0E161D;" d="M23.7,64l-1.5-2.6c-0.1,0-0.2,0-0.3,0h-2V64h-1.7v-8.7h3.6c1.1,0,2,0.3,2.6,0.8s0.9,1.3,0.9,2.2  c0,0.7-0.1,1.3-0.4,1.7c-0.3,0.5-0.7,0.8-1.3,1.1l1.9,2.9H23.7z M19.9,60h2c0.6,0,1.1-0.1,1.4-0.4c0.3-0.3,0.5-0.7,0.5-1.2  s-0.2-0.9-0.5-1.2s-0.8-0.4-1.4-0.4h-2V60z"></path>	<path style="fill:#0E161D;" d="M32.4,57c-0.4-0.2-0.8-0.3-1.3-0.3s-1,0.1-1.5,0.4c-0.4,0.3-0.8,0.6-1.1,1.1  c-0.3,0.5-0.4,0.9-0.4,1.5c0,0.5,0.1,1,0.4,1.5s0.6,0.8,1.1,1.1c0.4,0.3,0.9,0.4,1.5,0.4c0.4,0,0.8-0.1,1.2-0.3s0.8-0.4,1.1-0.8  l1,1.1c-0.5,0.5-1,0.8-1.6,1.1s-1.2,0.4-1.8,0.4c-0.8,0-1.6-0.2-2.3-0.6c-0.7-0.4-1.2-0.9-1.6-1.6c-0.4-0.7-0.6-1.4-0.6-2.3  c0-0.8,0.2-1.6,0.6-2.3s1-1.2,1.7-1.6c0.7-0.4,1.5-0.6,2.3-0.6c0.6,0,1.2,0.1,1.8,0.4c0.6,0.2,1.1,0.6,1.5,1l-1,1.2  C33.2,57.5,32.9,57.2,32.4,57z"></path>	<path style="fill:#0E161D;" d="M41.3,64l-1.5-2.6c-0.1,0-0.2,0-0.3,0h-2V64h-1.7v-8.7h3.6c1.1,0,2,0.3,2.6,0.8s0.9,1.3,0.9,2.2  c0,0.7-0.1,1.3-0.4,1.7c-0.3,0.5-0.7,0.8-1.3,1.1l1.9,2.9H41.3z M37.5,60h2c0.6,0,1.1-0.1,1.4-0.4c0.3-0.3,0.5-0.7,0.5-1.2  s-0.2-0.9-0.5-1.2s-0.8-0.4-1.4-0.4h-2V60z"></path>	<path style="fill:#0E161D;" d="M51.3,64l-0.8-1.8h-4.2L45.5,64h-1.7l3.8-8.7h1.7l3.8,8.7H51.3z M46.9,60.7H50l-1.5-3.6L46.9,60.7z"></path>	<path style="fill:#0E161D;" d="M54.1,55.3h6v1.5h-4.3v2.3h3.9v1.5h-3.9V64h-1.7V55.3z"></path>	<path style="fill:#0E161D;" d="M60.4,55.3h7.1v1.5h-2.7V64h-1.7v-7.2h-2.7V55.3z"></path>	<path style="fill:#0E161D;" d="M71.7,55.3h6v1.5h-4.3v2.3h3.9v1.5h-3.9V64h-1.7V55.3z"></path>	<path style="fill:#0E161D;" d="M78.9,55.3h1.7V64h-1.7V55.3z"></path>	<path style="fill:#0E161D;" d="M88.8,55.3h1.6V64h-1.6l-4.5-6v6h-1.6v-8.7h1.6l4.5,6V55.3z"></path>	<path style="fill:#0E161D;" d="M98.9,64l-0.8-1.8h-4.2L93.2,64h-1.7l3.8-8.7H97l3.8,8.7H98.9z M94.5,60.7h3.1l-1.5-3.6L94.5,60.7z"></path>	<path style="fill:#0E161D;" d="M107.8,55.3h1.6V64h-1.6l-4.5-6v6h-1.6v-8.7h1.6l4.5,6V55.3z"></path>	<path style="fill:#0E161D;" d="M116.8,57c-0.4-0.2-0.8-0.3-1.3-0.3s-1,0.1-1.5,0.4c-0.4,0.3-0.8,0.6-1.1,1.1  c-0.3,0.5-0.4,0.9-0.4,1.5c0,0.5,0.1,1,0.4,1.5s0.6,0.8,1.1,1.1c0.4,0.3,0.9,0.4,1.5,0.4c0.4,0,0.8-0.1,1.2-0.3  c0.4-0.2,0.8-0.4,1.1-0.8l1,1.1c-0.5,0.5-1,0.8-1.6,1.1s-1.2,0.4-1.8,0.4c-0.8,0-1.6-0.2-2.3-0.6c-0.7-0.4-1.2-0.9-1.6-1.6  c-0.4-0.7-0.6-1.4-0.6-2.3c0-0.8,0.2-1.6,0.6-2.3s1-1.2,1.7-1.6c0.7-0.4,1.5-0.6,2.3-0.6c0.6,0,1.2,0.1,1.8,0.4  c0.6,0.2,1.1,0.6,1.5,1l-1,1.2C117.6,57.5,117.2,57.2,116.8,57z"></path>	<path style="fill:#0E161D;" d="M120.2,55.3h6.4v1.5h-4.7v2.1h4.2v1.5h-4.2v2.2h4.9V64h-6.5v-8.7H120.2z"></path>	<path style="fill:#0E161D;" d="M137.3,59.7h1.5V63c-0.5,0.3-1,0.6-1.6,0.8s-1.2,0.3-1.8,0.3c-0.9,0-1.6-0.2-2.3-0.6  c-0.7-0.4-1.3-0.9-1.7-1.6c-0.4-0.7-0.6-1.4-0.6-2.3c0-0.8,0.2-1.6,0.6-2.3c0.4-0.7,1-1.2,1.7-1.6c0.7-0.4,1.5-0.6,2.4-0.6  c0.6,0,1.2,0.1,1.8,0.3s1.1,0.5,1.6,0.9l-0.9,1.2c-0.3-0.3-0.7-0.6-1.1-0.7c-0.4-0.2-0.9-0.3-1.3-0.3c-0.5,0-1,0.1-1.5,0.4  c-0.5,0.3-0.8,0.6-1.1,1.1s-0.4,1-0.4,1.5s0.1,1,0.4,1.5s0.6,0.8,1.1,1.1s1,0.4,1.5,0.4c0.3,0,0.6,0,0.9-0.1  c0.3-0.1,0.6-0.2,0.9-0.4L137.3,59.7L137.3,59.7z"></path>	<path style="fill:#0E161D;" d="M140.7,55.3h6.4v1.5h-4.7v2.1h4.2v1.5h-4.2v2.2h4.9V64h-6.5L140.7,55.3L140.7,55.3z"></path>	<path style="fill:#0E161D;" d="M154.4,64l-1.5-2.6c-0.1,0-0.2,0-0.3,0h-2V64h-1.7v-8.7h3.6c1.1,0,2,0.3,2.6,0.8s0.9,1.3,0.9,2.2  c0,0.7-0.1,1.3-0.4,1.7c-0.3,0.5-0.7,0.8-1.3,1.1l1.9,2.9H154.4z M150.6,60h2c0.6,0,1.1-0.1,1.4-0.4c0.3-0.3,0.5-0.7,0.5-1.2  s-0.2-0.9-0.5-1.2s-0.8-0.4-1.4-0.4h-2V60z"></path>	<path style="fill:#0E161D;" d="M157.9,55.3h1.9l2.9,5.6l2.9-5.6h1.9V64H166v-6.2l-2.7,5.3h-1.1l-2.7-5.3V64H158L157.9,55.3  L157.9,55.3z"></path>	<path style="fill:#0E161D;" d="M176,64l-0.8-1.8H171l-0.8,1.8h-1.7l3.8-8.7h1.7l3.8,8.7H176z M171.6,60.7h3.1l-1.5-3.6L171.6,60.7z  "></path>	<path style="fill:#0E161D;" d="M184.9,55.3h1.6V64h-1.6l-4.5-6v6h-1.6v-8.7h1.6l4.5,6V55.3z"></path>	<path style="fill:#0E161D;" d="M195.6,55.3l-3.2,5.8V64h-1.7v-2.8l-3.2-5.9h1.7l2.4,4.1l2.3-4.1H195.6z"></path>	<path style="fill:#0E161D;" d="M58.9,45.3c7.4,0,9.8-7.5,12.5-13.7L83.3,3.8h0.4l14.8,32.5c2,4.4,4.6,9,9.1,9v0.4H85.4v-0.4  c4.8,0,6.3-3.2,4-8.5l-2.3-5.1h-15l-0.5,1.4c-2.3,6-3,12.2,5,12.2v0.4H58.9V45.3z M86.9,31l-7.4-16.8L72.4,31H86.9z"></path>	<path style="fill:#0E161D;" d="M108.1,45.3c5.3,0,6.1-1.5,6.1-6.3V10.9c0-4.8-0.8-6.3-6.1-6.3V4.1h35.3l0.9,13.5l-0.3,0.1  c-1.8-7.8-5.8-13-16.6-13h-4.7v20.6h1.4c8.3,0,11.5-3.4,12.7-9.6h0.3v19.7h-0.3c-1.1-6.2-4.4-9.6-12.7-9.6h-1.4v12.9  c0,5.2,1.5,6.7,6.7,6.7v0.4h-21.2L108.1,45.3L108.1,45.3z"></path>	<path style="fill:#0E161D;" d="M148.6,25.3c0-13.5,11-22,24.2-22c5.3,0,11.1,1.4,16,0.1l1.1,13.3l-0.3,0.1  c-3.5-9.1-9.6-13.1-16.4-13.1c-10.8,0-15.6,10.1-15.6,21.7c0,10.6,4.1,20.6,15.3,20.6c3.9,0,7.1-1.1,10-2.7V33.2  c0-4.8-1-6.7-6.5-6.7V26H197v0.5c-5.1,0-5.9,1.4-5.9,6.2v11c-4.5,1.4-11,2.9-17.6,2.9C156.3,46.5,148.6,36.5,148.6,25.3z"></path></g></svg>